# 3ds Max Wavefront OBJ Exporter v0.99 - (c)2007 guruware
# File Created: 05.12.2023 12:46:55

mtllib Basep.mtl

#
# object Base
#

v  4.1214 0.1000 -1.0000
v  4.1214 0.0000 -0.0000
v  4.1214 0.1000 -0.0000
v  4.1214 0.0000 -1.0000
v  5.1214 0.0000 -1.0000
v  5.1214 0.1000 -1.0000
v  4.5714 0.1000 -0.5866
v  4.5507 0.1000 -0.5707
v  4.5348 0.1000 -0.5500
v  4.5248 0.1000 -0.5259
v  4.5214 0.1000 -0.5000
v  4.5248 0.1000 -0.4741
v  4.5348 0.1000 -0.4500
v  4.5507 0.1000 -0.4293
v  4.5714 0.1000 -0.4134
v  5.1214 0.1000 -0.0000
v  5.1214 0.0000 -0.0000
v  4.7214 0.1000 -0.5000
v  4.7180 0.1000 -0.5259
v  4.7080 0.1000 -0.5500
v  4.6922 0.1000 -0.5707
v  4.6714 0.1000 -0.5866
v  4.6473 0.1000 -0.5966
v  4.6214 0.1000 -0.6000
v  4.5956 0.1000 -0.5966
v  4.5714 0.7703 -0.5866
v  4.5956 0.7703 -0.5966
v  4.5956 0.7703 -0.4034
v  4.5714 0.7703 -0.4134
v  4.5507 0.7703 -0.5707
v  4.5507 0.7703 -0.4293
v  4.5348 0.7703 -0.5500
v  4.5348 0.7703 -0.4500
v  4.5248 0.7703 -0.5259
v  4.5248 0.7703 -0.4741
v  4.5214 0.7703 -0.5000
v  4.5956 0.1000 -0.4034
v  4.6214 0.1000 -0.4000
v  4.6473 0.1000 -0.4034
v  4.6714 0.1000 -0.4134
v  4.6922 0.1000 -0.4293
v  4.7080 0.1000 -0.4500
v  4.7180 0.1000 -0.4741
v  4.7180 0.7703 -0.4741
v  4.7214 0.7703 -0.5000
v  4.7180 0.7703 -0.5259
v  4.7080 0.7703 -0.5500
v  4.6922 0.7703 -0.5707
v  4.6714 0.7703 -0.5866
v  4.6473 0.7703 -0.5966
v  4.6214 0.7703 -0.6000
v  4.6214 0.7703 -0.4000
v  4.6473 0.7703 -0.4034
v  4.6714 0.7703 -0.4134
v  4.6922 0.7703 -0.4293
v  4.7080 0.7703 -0.4500
v  0.0000 0.1000 -1.1214
v  0.0000 0.0000 -0.0000
v  0.0000 0.1000 -0.0000
v  0.0000 0.0000 -1.1214
v  1.1214 0.0000 -1.1214
v  1.1214 0.1000 -1.1214
v  0.5046 0.1000 -0.6578
v  0.4814 0.1000 -0.6400
v  0.4636 0.1000 -0.6168
v  0.4524 0.1000 -0.5897
v  0.4486 0.1000 -0.5607
v  0.4524 0.1000 -0.5317
v  0.4636 0.1000 -0.5046
v  0.4814 0.1000 -0.4814
v  0.5046 0.1000 -0.4636
v  1.1214 0.1000 -0.0000
v  1.1214 0.0000 -0.0000
v  0.6729 0.1000 -0.5607
v  0.6690 0.1000 -0.5897
v  0.6578 0.1000 -0.6168
v  0.6400 0.1000 -0.6400
v  0.6168 0.1000 -0.6578
v  0.5897 0.1000 -0.6690
v  0.5607 0.1000 -0.6729
v  0.5317 0.1000 -0.6690
v  0.5046 0.7703 -0.6578
v  0.5317 0.7703 -0.6690
v  0.5317 0.7703 -0.4524
v  0.5046 0.7703 -0.4636
v  0.4814 0.7703 -0.6400
v  0.4814 0.7703 -0.4814
v  0.4636 0.7703 -0.6168
v  0.4636 0.7703 -0.5046
v  0.4524 0.7703 -0.5897
v  0.4524 0.7703 -0.5317
v  0.4486 0.7703 -0.5607
v  0.5317 0.1000 -0.4524
v  0.5607 0.1000 -0.4486
v  0.5897 0.1000 -0.4524
v  0.6168 0.1000 -0.4636
v  0.6400 0.1000 -0.4814
v  0.6578 0.1000 -0.5046
v  0.6690 0.1000 -0.5317
v  0.6690 0.7703 -0.5317
v  0.6729 0.7703 -0.5607
v  0.6690 0.7703 -0.5897
v  0.6578 0.7703 -0.6168
v  0.6400 0.7703 -0.6400
v  0.6168 0.7703 -0.6578
v  0.5897 0.7703 -0.6690
v  0.5607 0.7703 -0.6729
v  0.5607 0.7703 -0.4486
v  0.5897 0.7703 -0.4524
v  0.6168 0.7703 -0.4636
v  0.6400 0.7703 -0.4814
v  0.6578 0.7703 -0.5046
v  2.1214 0.1000 -1.0000
v  2.1214 0.0000 -0.0000
v  2.1214 0.1000 -0.0000
v  2.1214 0.0000 -1.0000
v  3.1214 0.0000 -1.0000
v  3.1214 0.1000 -1.0000
v  2.5714 0.1000 -0.5866
v  2.5507 0.1000 -0.5707
v  2.5348 0.1000 -0.5500
v  2.5248 0.1000 -0.5259
v  2.5214 0.1000 -0.5000
v  2.5248 0.1000 -0.4741
v  2.5348 0.1000 -0.4500
v  2.5507 0.1000 -0.4293
v  2.5714 0.1000 -0.4134
v  3.1214 0.1000 -0.0000
v  3.1214 0.0000 -0.0000
v  2.7214 0.1000 -0.5000
v  2.7180 0.1000 -0.5259
v  2.7080 0.1000 -0.5500
v  2.6922 0.1000 -0.5707
v  2.6714 0.1000 -0.5866
v  2.6473 0.1000 -0.5966
v  2.6214 0.1000 -0.6000
v  2.5956 0.1000 -0.5966
v  2.5714 0.7703 -0.5866
v  2.5956 0.7703 -0.5966
v  2.5956 0.7703 -0.4034
v  2.5714 0.7703 -0.4134
v  2.5507 0.7703 -0.5707
v  2.5507 0.7703 -0.4293
v  2.5348 0.7703 -0.5500
v  2.5348 0.7703 -0.4500
v  2.5248 0.7703 -0.5259
v  2.5248 0.7703 -0.4741
v  2.5214 0.7703 -0.5000
v  2.5956 0.1000 -0.4034
v  2.6214 0.1000 -0.4000
v  2.6473 0.1000 -0.4034
v  2.6714 0.1000 -0.4134
v  2.6922 0.1000 -0.4293
v  2.7080 0.1000 -0.4500
v  2.7180 0.1000 -0.4741
v  2.7180 0.7703 -0.4741
v  2.7214 0.7703 -0.5000
v  2.7180 0.7703 -0.5259
v  2.7080 0.7703 -0.5500
v  2.6922 0.7703 -0.5707
v  2.6714 0.7703 -0.5866
v  2.6473 0.7703 -0.5966
v  2.6214 0.7703 -0.6000
v  2.6214 0.7703 -0.4000
v  2.6473 0.7703 -0.4034
v  2.6714 0.7703 -0.4134
v  2.6922 0.7703 -0.4293
v  2.7080 0.7703 -0.4500
# 168 vertices

vn -0.5774 0.5774 -0.5774
vn -0.5774 -0.5774 0.5774
vn -0.5774 0.5774 0.5774
vn -0.5774 -0.5774 -0.5774
vn 0.5774 -0.5774 -0.5774
vn 0.5774 0.5774 -0.5774
vn -0.3375 0.7377 -0.5846
vn -0.4774 0.7377 -0.4773
vn -0.5847 0.7377 -0.3376
vn -0.6521 0.7377 -0.1748
vn -0.6751 0.7378 -0.0000
vn -0.6521 0.7377 0.1748
vn -0.5847 0.7377 0.3376
vn -0.4774 0.7377 0.4774
vn -0.3375 0.7377 0.5846
vn 0.5774 0.5774 0.5774
vn 0.5774 -0.5774 0.5774
vn 0.6751 0.7378 0.0000
vn 0.6521 0.7377 -0.1747
vn 0.5847 0.7377 -0.3375
vn 0.4774 0.7377 -0.4774
vn 0.3376 0.7377 -0.5847
vn 0.1747 0.7377 -0.6521
vn -0.0000 0.7377 -0.6751
vn -0.1747 0.7377 -0.6521
vn -0.3671 0.6789 -0.6359
vn -0.1900 0.6789 -0.7092
vn -0.1900 0.6789 0.7092
vn -0.3671 0.6789 0.6359
vn -0.5192 0.6789 -0.5192
vn -0.5192 0.6789 0.5191
vn -0.6359 0.6789 -0.3671
vn -0.6359 0.6789 0.3671
vn -0.7092 0.6789 -0.1901
vn -0.7092 0.6789 0.1901
vn -0.7342 0.6789 0.0000
vn -0.1747 0.7377 0.6521
vn 0.0000 0.7377 0.6751
vn 0.1747 0.7377 0.6521
vn 0.3376 0.7377 0.5847
vn 0.4774 0.7377 0.4773
vn 0.5847 0.7377 0.3375
vn 0.6521 0.7377 0.1748
vn 0.7092 0.6789 0.1900
vn 0.7342 0.6789 -0.0000
vn 0.7092 0.6789 -0.1901
vn 0.6359 0.6789 -0.3671
vn 0.5192 0.6789 -0.5192
vn 0.3671 0.6789 -0.6359
vn 0.1900 0.6789 -0.7092
vn 0.0000 0.6789 -0.7343
vn -0.0000 0.6789 0.7343
vn 0.1900 0.6789 0.7092
vn 0.3671 0.6789 0.6359
vn 0.5192 0.6789 0.5192
vn 0.6359 0.6789 0.3671
vn -0.3376 0.7377 -0.5847
vn -0.4774 0.7377 -0.4774
vn -0.6521 0.7377 -0.1747
vn -0.6751 0.7377 -0.0000
vn -0.6521 0.7377 0.1747
vn -0.3376 0.7377 0.5847
vn 0.6751 0.7377 -0.0000
vn 0.5847 0.7377 -0.3376
vn 0.0000 0.7377 -0.6751
vn -0.5192 0.6789 0.5192
vn -0.7092 0.6789 -0.1900
vn -0.7092 0.6789 0.1900
vn -0.7343 0.6789 -0.0000
vn 0.4774 0.7377 0.4774
vn 0.5847 0.7377 0.3376
vn 0.6521 0.7377 0.1747
vn 0.7092 0.6789 -0.1900
vn 0.0000 0.6789 -0.7342
vn 0.0000 0.6789 0.7343
vn 0.6521 0.7377 -0.1748
vn 0.3375 0.7377 -0.5846
vn -0.0000 0.7377 0.6751
vn 0.7092 0.6789 0.1901
vn 0.5192 0.6789 -0.5191
vn -0.0000 0.6789 -0.7343
# 81 vertex normals

vt -39.3701 3.9370 0.0000
vt 0.0000 0.0000 0.0000
vt 0.0000 3.9370 0.0000
vt -39.3701 0.0000 0.0000
vt 0.0000 39.3701 0.0000
vt 17.7165 23.0946 0.0000
vt 39.3701 39.3701 0.0000
vt 16.9012 22.4689 0.0000
vt 16.2755 21.6535 0.0000
vt 15.8822 20.7040 0.0000
vt 15.7480 19.6850 0.0000
vt 15.8822 18.6661 0.0000
vt 16.2755 17.7165 0.0000
vt 16.9012 16.9012 0.0000
vt 17.7165 16.2755 0.0000
vt 39.3701 0.0000 0.0000
vt 39.3701 3.9370 0.0000
vt -39.3701 39.3701 0.0000
vt 23.6220 19.6850 0.0000
vt 23.4879 20.7040 0.0000
vt 23.0946 21.6535 0.0000
vt 22.4689 22.4689 0.0000
vt 21.6535 23.0946 0.0000
vt 20.7040 23.4879 0.0000
vt 19.6850 23.6220 0.0000
vt 18.6661 23.4879 0.0000
vt -25.2059 30.3276 0.0000
vt -26.2336 3.9370 0.0000
vt -25.2059 3.9370 0.0000
vt -26.2336 30.3276 0.0000
vt 18.6661 15.8822 0.0000
vt -22.5999 30.3276 0.0000
vt -21.5722 3.9370 0.0000
vt -21.5722 30.3276 0.0000
vt -22.5999 3.9370 0.0000
vt -28.1146 30.3276 0.0000
vt -27.0868 3.9370 0.0000
vt -27.0868 30.3276 0.0000
vt -28.1146 3.9370 0.0000
vt -16.4333 3.9370 0.0000
vt -17.4611 30.3276 0.0000
vt -17.4611 3.9370 0.0000
vt -16.4333 30.3276 0.0000
vt -10.1396 3.9370 0.0000
vt -11.1673 30.3276 0.0000
vt -11.1673 3.9370 0.0000
vt -10.1396 30.3276 0.0000
vt -3.1198 3.9370 0.0000
vt -4.1476 30.3276 0.0000
vt -4.1476 3.9370 0.0000
vt -3.1198 30.3276 0.0000
vt 3.1198 3.9370 0.0000
vt 4.1476 30.3276 0.0000
vt 3.1198 30.3276 0.0000
vt 4.1476 3.9370 0.0000
vt 10.1396 3.9370 0.0000
vt 11.1673 30.3276 0.0000
vt 10.1396 30.3276 0.0000
vt 11.1673 3.9370 0.0000
vt 19.6850 15.7480 0.0000
vt 20.7040 15.8822 0.0000
vt 21.6535 16.2755 0.0000
vt 22.4689 16.9012 0.0000
vt 23.0946 17.7165 0.0000
vt 23.4879 18.6661 0.0000
vt 22.5999 3.9370 0.0000
vt 21.5722 30.3276 0.0000
vt 21.5722 3.9370 0.0000
vt 22.5999 30.3276 0.0000
vt 17.4611 3.9370 0.0000
vt 16.4333 30.3276 0.0000
vt 16.4333 3.9370 0.0000
vt 17.4611 30.3276 0.0000
vt 25.2059 3.9370 0.0000
vt 26.2336 30.3276 0.0000
vt 25.2059 30.3276 0.0000
vt 26.2336 3.9370 0.0000
vt 27.0868 3.9370 0.0000
vt 28.1146 30.3276 0.0000
vt 27.0868 30.3276 0.0000
vt 28.1146 3.9370 0.0000
# 81 texture coords

o Base
g Base
usemtl 13___Default
s 1
f 1/1/1 2/2/2 3/3/3 
f 2/2/2 1/1/1 4/4/4 
f 1/3/1 5/4/5 4/2/4 
f 5/4/5 1/3/1 6/1/6 
f 1/5/1 7/6/7 6/7/6 
f 7/6/7 1/5/1 8/8/8 
f 8/8/8 1/5/1 9/9/9 
f 9/9/9 1/5/1 10/10/10 
f 10/10/10 1/5/1 11/11/11 
f 1/5/1 12/12/12 11/11/11 
f 1/5/1 13/13/13 12/12/12 
f 3/2/3 13/13/13 1/5/1 
f 13/13/13 3/2/3 14/14/14 
f 14/14/14 3/2/3 15/15/15 
f 15/15/15 3/2/3 16/16/16 
f 2/2/2 16/17/16 3/3/3 
f 16/17/16 2/2/2 17/16/17 
f 2/2/2 5/18/5 17/4/17 
f 5/18/5 2/2/2 4/5/4 
f 5/16/5 16/3/16 17/2/17 
f 16/3/16 5/16/5 6/17/6 
f 6/7/6 18/19/18 16/16/16 
f 6/7/6 19/20/19 18/19/18 
f 6/7/6 20/21/20 19/20/19 
f 6/7/6 21/22/21 20/21/20 
f 6/7/6 22/23/22 21/22/21 
f 6/7/6 23/24/23 22/23/22 
f 6/7/6 24/25/24 23/24/23 
f 6/7/6 25/26/25 24/25/24 
f 6/7/6 7/6/7 25/26/25 
f 26/27/26 25/28/25 7/29/7 
f 25/28/25 26/27/26 27/30/27 
f 26/6/26 28/31/28 27/26/27 
f 26/6/26 29/15/29 28/31/28 
f 30/8/30 29/15/29 26/6/26 
f 30/8/30 31/14/31 29/15/29 
f 32/9/32 31/14/31 30/8/30 
f 32/9/32 33/13/33 31/14/31 
f 34/10/34 33/13/33 32/9/32 
f 34/10/34 35/12/35 33/13/33 
f 35/12/35 34/10/34 36/11/36 
f 34/32/34 11/33/11 36/34/36 
f 11/33/11 34/32/34 10/35/10 
f 32/30/32 10/29/10 34/27/34 
f 10/29/10 32/30/32 9/28/9 
f 30/36/30 9/37/9 32/38/32 
f 9/37/9 30/36/30 8/39/8 
f 30/38/30 7/39/7 8/37/8 
f 7/39/7 30/38/30 26/36/26 
f 12/40/12 36/41/36 11/42/11 
f 36/41/36 12/40/12 35/43/35 
f 13/44/13 35/45/35 12/46/12 
f 35/45/35 13/44/13 33/47/33 
f 14/48/14 33/49/33 13/50/13 
f 33/49/33 14/48/14 31/51/31 
f 14/52/14 29/53/29 31/54/31 
f 29/53/29 14/52/14 15/55/15 
f 15/56/15 28/57/28 29/58/29 
f 28/57/28 15/56/15 37/59/37 
f 15/15/15 16/16/16 37/31/37 
f 37/31/37 16/16/16 38/60/38 
f 38/60/38 16/16/16 39/61/39 
f 39/61/39 16/16/16 40/62/40 
f 40/62/40 16/16/16 41/63/41 
f 41/63/41 16/16/16 42/64/42 
f 42/64/42 16/16/16 43/65/43 
f 43/65/43 16/16/16 18/19/18 
f 18/66/18 44/67/44 43/68/43 
f 44/67/44 18/66/18 45/69/45 
f 19/70/19 45/71/45 18/72/18 
f 45/71/45 19/70/19 46/73/46 
f 20/59/20 46/58/46 19/56/19 
f 46/58/46 20/59/20 47/57/47 
f 21/55/21 47/54/47 20/52/20 
f 47/54/47 21/55/21 48/53/48 
f 21/50/21 49/51/49 48/49/48 
f 49/51/49 21/50/21 22/48/22 
f 22/46/22 50/47/50 49/45/49 
f 50/47/50 22/46/22 23/44/23 
f 23/42/23 51/43/51 50/41/50 
f 51/43/51 23/42/23 24/40/24 
f 24/35/24 27/34/27 51/32/51 
f 27/34/27 24/35/24 25/33/25 
f 27/26/27 52/60/52 51/25/51 
f 27/26/27 28/31/28 52/60/52 
f 37/72/37 52/73/52 28/71/28 
f 52/73/52 37/72/37 38/70/38 
f 38/68/38 53/69/53 52/67/52 
f 53/69/53 38/68/38 39/66/39 
f 39/74/39 54/75/54 53/76/53 
f 54/75/54 39/74/39 40/77/40 
f 40/78/40 55/79/55 54/80/54 
f 55/79/55 40/78/40 41/81/41 
f 42/81/42 55/80/55 41/78/41 
f 55/80/55 42/81/42 56/79/56 
f 43/77/43 56/76/56 42/74/42 
f 56/76/56 43/77/43 44/75/44 
f 46/20/46 56/64/56 44/65/44 
f 47/21/47 56/64/56 46/20/46 
f 48/22/48 56/64/56 47/21/47 
f 48/22/48 55/63/55 56/64/56 
f 48/22/48 54/62/54 55/63/55 
f 49/23/49 54/62/54 48/22/48 
f 50/24/50 54/62/54 49/23/49 
f 50/24/50 53/61/53 54/62/54 
f 51/25/51 53/61/53 50/24/50 
f 51/25/51 52/60/52 53/61/53 
f 46/20/46 44/65/44 45/19/45 
f 57/1/1 58/2/2 59/3/3 
f 58/2/2 57/1/1 60/4/4 
f 57/3/1 61/4/5 60/2/4 
f 61/4/5 57/3/1 62/1/6 
f 57/5/1 63/6/57 62/7/6 
f 63/6/57 57/5/1 64/8/58 
f 64/8/58 57/5/1 65/9/9 
f 65/9/9 57/5/1 66/10/59 
f 66/10/59 57/5/1 67/11/60 
f 57/5/1 68/12/61 67/11/60 
f 57/5/1 69/13/13 68/12/61 
f 59/2/3 69/13/13 57/5/1 
f 69/13/13 59/2/3 70/14/14 
f 70/14/14 59/2/3 71/15/62 
f 71/15/62 59/2/3 72/16/16 
f 58/2/2 72/17/16 59/3/3 
f 72/17/16 58/2/2 73/16/17 
f 58/2/2 61/18/5 73/4/17 
f 61/18/5 58/2/2 60/5/4 
f 61/16/5 72/3/16 73/2/17 
f 72/3/16 61/16/5 62/17/6 
f 62/7/6 74/19/63 72/16/16 
f 62/7/6 75/20/19 74/19/63 
f 62/7/6 76/21/64 75/20/19 
f 62/7/6 77/22/21 76/21/64 
f 62/7/6 78/23/22 77/22/21 
f 62/7/6 79/24/23 78/23/22 
f 62/7/6 80/25/65 79/24/23 
f 62/7/6 81/26/25 80/25/65 
f 62/7/6 63/6/57 81/26/25 
f 82/27/26 81/28/25 63/29/57 
f 81/28/25 82/27/26 83/30/27 
f 82/6/26 84/31/28 83/26/27 
f 82/6/26 85/15/29 84/31/28 
f 86/8/30 85/15/29 82/6/26 
f 86/8/30 87/14/66 85/15/29 
f 88/9/32 87/14/66 86/8/30 
f 88/9/32 89/13/33 87/14/66 
f 90/10/67 89/13/33 88/9/32 
f 90/10/67 91/12/68 89/13/33 
f 91/12/68 90/10/67 92/11/69 
f 90/32/67 67/33/60 92/34/69 
f 67/33/60 90/32/67 66/35/59 
f 88/30/32 66/29/59 90/27/67 
f 66/29/59 88/30/32 65/28/9 
f 86/36/30 65/37/9 88/38/32 
f 65/37/9 86/36/30 64/39/58 
f 86/38/30 63/39/57 64/37/58 
f 63/39/57 86/38/30 82/36/26 
f 68/40/61 92/41/69 67/42/60 
f 92/41/69 68/40/61 91/43/68 
f 69/44/13 91/45/68 68/46/61 
f 91/45/68 69/44/13 89/47/33 
f 70/48/14 89/49/33 69/50/13 
f 89/49/33 70/48/14 87/51/66 
f 70/52/14 85/53/29 87/54/66 
f 85/53/29 70/52/14 71/55/62 
f 71/56/62 84/57/28 85/58/29 
f 84/57/28 71/56/62 93/59/37 
f 71/15/62 72/16/16 93/31/37 
f 93/31/37 72/16/16 94/60/38 
f 94/60/38 72/16/16 95/61/39 
f 95/61/39 72/16/16 96/62/40 
f 96/62/40 72/16/16 97/63/70 
f 97/63/70 72/16/16 98/64/71 
f 98/64/71 72/16/16 99/65/72 
f 99/65/72 72/16/16 74/19/63 
f 74/66/63 100/67/44 99/68/72 
f 100/67/44 74/66/63 101/69/45 
f 75/70/19 101/71/45 74/72/63 
f 101/71/45 75/70/19 102/73/73 
f 76/59/64 102/58/73 75/56/19 
f 102/58/73 76/59/64 103/57/47 
f 77/55/21 103/54/47 76/52/64 
f 103/54/47 77/55/21 104/53/48 
f 77/50/21 105/51/49 104/49/48 
f 105/51/49 77/50/21 78/48/22 
f 78/46/22 106/47/50 105/45/49 
f 106/47/50 78/46/22 79/44/23 
f 79/42/23 107/43/74 106/41/50 
f 107/43/74 79/42/23 80/40/65 
f 80/35/65 83/34/27 107/32/74 
f 83/34/27 80/35/65 81/33/25 
f 83/26/27 108/60/75 107/25/74 
f 83/26/27 84/31/28 108/60/75 
f 93/72/37 108/73/75 84/71/28 
f 108/73/75 93/72/37 94/70/38 
f 94/68/38 109/69/53 108/67/75 
f 109/69/53 94/68/38 95/66/39 
f 95/74/39 110/75/54 109/76/53 
f 110/75/54 95/74/39 96/77/40 
f 96/78/40 111/79/55 110/80/54 
f 111/79/55 96/78/40 97/81/70 
f 98/81/71 111/80/55 97/78/70 
f 111/80/55 98/81/71 112/79/56 
f 99/77/72 112/76/56 98/74/71 
f 112/76/56 99/77/72 100/75/44 
f 102/20/73 112/64/56 100/65/44 
f 103/21/47 112/64/56 102/20/73 
f 104/22/48 112/64/56 103/21/47 
f 104/22/48 111/63/55 112/64/56 
f 104/22/48 110/62/54 111/63/55 
f 105/23/49 110/62/54 104/22/48 
f 106/24/50 110/62/54 105/23/49 
f 106/24/50 109/61/53 110/62/54 
f 107/25/74 109/61/53 106/24/50 
f 107/25/74 108/60/75 109/61/53 
f 102/20/73 100/65/44 101/19/45 
f 113/1/1 114/2/2 115/3/3 
f 114/2/2 113/1/1 116/4/4 
f 113/3/1 117/4/5 116/2/4 
f 117/4/5 113/3/1 118/1/6 
f 113/5/1 119/6/57 118/7/6 
f 119/6/57 113/5/1 120/8/58 
f 120/8/58 113/5/1 121/9/9 
f 121/9/9 113/5/1 122/10/10 
f 122/10/10 113/5/1 123/11/11 
f 113/5/1 124/12/12 123/11/11 
f 113/5/1 125/13/13 124/12/12 
f 115/2/3 125/13/13 113/5/1 
f 125/13/13 115/2/3 126/14/14 
f 126/14/14 115/2/3 127/15/15 
f 127/15/15 115/2/3 128/16/16 
f 114/2/2 128/17/16 115/3/3 
f 128/17/16 114/2/2 129/16/17 
f 114/2/2 117/18/5 129/4/17 
f 117/18/5 114/2/2 116/5/4 
f 117/16/5 128/3/16 129/2/17 
f 128/3/16 117/16/5 118/17/6 
f 118/7/6 130/19/18 128/16/16 
f 118/7/6 131/20/76 130/19/18 
f 118/7/6 132/21/20 131/20/76 
f 118/7/6 133/22/21 132/21/20 
f 118/7/6 134/23/77 133/22/21 
f 118/7/6 135/24/23 134/23/77 
f 118/7/6 136/25/24 135/24/23 
f 118/7/6 137/26/25 136/25/24 
f 118/7/6 119/6/57 137/26/25 
f 138/27/26 137/28/25 119/29/57 
f 137/28/25 138/27/26 139/30/27 
f 138/6/26 140/31/28 139/26/27 
f 138/6/26 141/15/29 140/31/28 
f 142/8/30 141/15/29 138/6/26 
f 142/8/30 143/14/31 141/15/29 
f 144/9/32 143/14/31 142/8/30 
f 144/9/32 145/13/33 143/14/31 
f 146/10/34 145/13/33 144/9/32 
f 146/10/34 147/12/35 145/13/33 
f 147/12/35 146/10/34 148/11/36 
f 146/32/34 123/33/11 148/34/36 
f 123/33/11 146/32/34 122/35/10 
f 144/30/32 122/29/10 146/27/34 
f 122/29/10 144/30/32 121/28/9 
f 142/36/30 121/37/9 144/38/32 
f 121/37/9 142/36/30 120/39/58 
f 142/38/30 119/39/57 120/37/58 
f 119/39/57 142/38/30 138/36/26 
f 124/40/12 148/41/36 123/42/11 
f 148/41/36 124/40/12 147/43/35 
f 125/44/13 147/45/35 124/46/12 
f 147/45/35 125/44/13 145/47/33 
f 126/48/14 145/49/33 125/50/13 
f 145/49/33 126/48/14 143/51/31 
f 126/52/14 141/53/29 143/54/31 
f 141/53/29 126/52/14 127/55/15 
f 127/56/15 140/57/28 141/58/29 
f 140/57/28 127/56/15 149/59/37 
f 127/15/15 128/16/16 149/31/37 
f 149/31/37 128/16/16 150/60/78 
f 150/60/78 128/16/16 151/61/39 
f 151/61/39 128/16/16 152/62/40 
f 152/62/40 128/16/16 153/63/70 
f 153/63/70 128/16/16 154/64/42 
f 154/64/42 128/16/16 155/65/43 
f 155/65/43 128/16/16 130/19/18 
f 130/66/18 156/67/79 155/68/43 
f 156/67/79 130/66/18 157/69/45 
f 131/70/76 157/71/45 130/72/18 
f 157/71/45 131/70/76 158/73/46 
f 132/59/20 158/58/46 131/56/76 
f 158/58/46 132/59/20 159/57/47 
f 133/55/21 159/54/47 132/52/20 
f 159/54/47 133/55/21 160/53/80 
f 133/50/21 161/51/49 160/49/80 
f 161/51/49 133/50/21 134/48/77 
f 134/46/77 162/47/50 161/45/49 
f 162/47/50 134/46/77 135/44/23 
f 135/42/23 163/43/81 162/41/50 
f 163/43/81 135/42/23 136/40/24 
f 136/35/24 139/34/27 163/32/81 
f 139/34/27 136/35/24 137/33/25 
f 139/26/27 164/60/52 163/25/81 
f 139/26/27 140/31/28 164/60/52 
f 149/72/37 164/73/52 140/71/28 
f 164/73/52 149/72/37 150/70/78 
f 150/68/78 165/69/53 164/67/52 
f 165/69/53 150/68/78 151/66/39 
f 151/74/39 166/75/54 165/76/53 
f 166/75/54 151/74/39 152/77/40 
f 152/78/40 167/79/55 166/80/54 
f 167/79/55 152/78/40 153/81/70 
f 154/81/42 167/80/55 153/78/70 
f 167/80/55 154/81/42 168/79/56 
f 155/77/43 168/76/56 154/74/42 
f 168/76/56 155/77/43 156/75/79 
f 158/20/46 168/64/56 156/65/79 
f 159/21/47 168/64/56 158/20/46 
f 160/22/80 168/64/56 159/21/47 
f 160/22/80 167/63/55 168/64/56 
f 160/22/80 166/62/54 167/63/55 
f 161/23/49 166/62/54 160/22/80 
f 162/24/50 166/62/54 161/23/49 
f 162/24/50 165/61/53 166/62/54 
f 163/25/81 165/61/53 162/24/50 
f 163/25/81 164/60/52 165/61/53 
f 158/20/46 156/65/79 157/19/45 
# 0 polygons - 324 triangles

