# Alias OBJ Model File
# Exported from SketchUp, (c) 2000-2012 Trimble Navigation Limited
# File units = meters

mtllib Base.mtl

g Mesh1 Palo_1_1 Model

usemtl Color_M05
v 4.12144 0.1 -1
vt -39.3701 3.93701
vn -1 0 -0
v 4.12144 0 -0
vt 0 0
v 4.12144 0.1 -0
vt 0 3.93701
f 1/1/1 2/2/1 3/3/1

v 4.12144 0 -1
vt -39.3701 0
f 2/2/1 1/1/1 4/4/1

vn 0 0 -1
v 5.12144 0 -1
f 1/3/2 5/4/2 4/2/2

v 5.12144 0.1 -1
f 5/4/2 1/3/2 6/1/2

vt 0 39.3701
vn 0 1 -0
v 4.57144 0.1 -0.586603
vt 17.7165 23.0946
vt 39.3701 39.3701
f 1/5/3 7/6/3 6/7/3

v 4.55073 0.1 -0.570711
vt 16.9012 22.4689
f 7/6/3 1/5/3 8/8/3

v 4.53484 0.1 -0.55
vt 16.2755 21.6535
f 8/8/3 1/5/3 9/9/3

v 4.52485 0.1 -0.525882
vt 15.8822 20.704
f 9/9/3 1/5/3 10/10/3

v 4.52144 0.1 -0.5
vt 15.748 19.685
f 10/10/3 1/5/3 11/11/3

v 4.52485 0.1 -0.474118
vt 15.8822 18.6661
f 1/5/3 12/12/3 11/11/3

v 4.53484 0.1 -0.45
vt 16.2755 17.7165
f 1/5/3 13/13/3 12/12/3

f 3/2/3 13/13/3 1/5/3

v 4.55073 0.1 -0.429289
vt 16.9012 16.9012
f 13/13/3 3/2/3 14/14/3

v 4.57144 0.1 -0.413397
vt 17.7165 16.2755
f 14/14/3 3/2/3 15/15/3

v 5.12144 0.1 -0
vt 39.3701 0
f 15/15/3 3/2/3 16/16/3

vn 0 0 1
vt 39.3701 3.93701
f 2/2/4 16/17/4 3/3/4

v 5.12144 0 -0
f 16/17/4 2/2/4 17/16/4

vn 0 -1 -0
vt -39.3701 39.3701
f 2/2/5 5/18/5 17/4/5

f 5/18/5 2/2/5 4/5/5

vn 1 0 -0
f 5/16/6 16/3/6 17/2/6

f 16/3/6 5/16/6 6/17/6

v 4.72144 0.1 -0.5
vt 23.622 19.685
f 6/7/3 18/19/3 16/16/3

v 4.71803 0.1 -0.525882
vt 23.4879 20.704
f 6/7/3 19/20/3 18/19/3

v 4.70804 0.1 -0.55
vt 23.0946 21.6535
f 6/7/3 20/21/3 19/20/3

v 4.69215 0.1 -0.570711
vt 22.4689 22.4689
f 6/7/3 21/22/3 20/21/3

v 4.67144 0.1 -0.586603
vt 21.6535 23.0946
f 6/7/3 22/23/3 21/22/3

v 4.64732 0.1 -0.596593
vt 20.704 23.4879
f 6/7/3 23/24/3 22/23/3

v 4.62144 0.1 -0.6
vt 19.685 23.622
f 6/7/3 24/25/3 23/24/3

v 4.59556 0.1 -0.596593
vt 18.6661 23.4879
f 6/7/3 25/26/3 24/25/3

f 6/7/3 7/6/3 25/26/3

v 4.57144 0.77032 -0.586603
vt -25.2059 30.3276
vn -0.5 0 -0.866025
vt -26.2336 3.93701
vn -0.258819 0 -0.965926
vt -25.2059 3.93701
f 26/27/7 25/28/8 7/29/7

v 4.59556 0.77032 -0.596593
vt -26.2336 30.3276
f 25/28/8 26/27/7 27/30/8

v 4.59556 0.77032 -0.403407
vt 18.6661 15.8822
f 26/6/3 28/31/3 27/26/3

v 4.57144 0.77032 -0.413397
f 26/6/3 29/15/3 28/31/3

v 4.55073 0.77032 -0.570711
f 30/8/3 29/15/3 26/6/3

v 4.55073 0.77032 -0.429289
f 30/8/3 31/14/3 29/15/3

v 4.53484 0.77032 -0.55
f 32/9/3 31/14/3 30/8/3

v 4.53484 0.77032 -0.45
f 32/9/3 33/13/3 31/14/3

v 4.52485 0.77032 -0.525882
f 34/10/3 33/13/3 32/9/3

v 4.52485 0.77032 -0.474118
f 34/10/3 35/12/3 33/13/3

v 4.52144 0.77032 -0.5
f 35/12/3 34/10/3 36/11/3

vt -22.5999 30.3276
vn -0.965926 0 -0.258819
vt -21.5722 3.93701
vn -1 0 5.87897e-16
vt -21.5722 30.3276
f 34/32/9 11/33/10 36/34/10

vt -22.5999 3.93701
f 11/33/10 34/32/9 10/35/9

vn -0.866025 0 -0.5
f 32/30/11 10/29/9 34/27/9

f 10/29/9 32/30/11 9/28/11

vt -28.1146 30.3276
vn -0.707107 0 -0.707107
vt -27.0868 3.93701
vt -27.0868 30.3276
f 30/36/12 9/37/11 32/38/11

vt -28.1146 3.93701
f 9/37/11 30/36/12 8/39/12

f 30/38/12 7/39/7 8/37/12

f 7/39/7 30/38/12 26/36/7

vt -16.4333 3.93701
vn -0.965926 0 0.258819
vt -17.4611 30.3276
vt -17.4611 3.93701
f 12/40/13 36/41/10 11/42/10

vt -16.4333 30.3276
f 36/41/10 12/40/13 35/43/13

vt -10.1396 3.93701
vn -0.866025 0 0.5
vt -11.1673 30.3276
vt -11.1673 3.93701
f 13/44/14 35/45/13 12/46/13

vt -10.1396 30.3276
f 35/45/13 13/44/14 33/47/14

vt -3.11982 3.93701
vn -0.707107 0 0.707107
vt -4.14758 30.3276
vt -4.14758 3.93701
f 14/48/15 33/49/14 13/50/14

vt -3.11982 30.3276
f 33/49/14 14/48/15 31/51/15

vt 3.11982 3.93701
vt 4.14758 30.3276
vn -0.5 0 0.866025
vt 3.11982 30.3276
f 14/52/15 29/53/16 31/54/15

vt 4.14758 3.93701
f 29/53/16 14/52/15 15/55/16

vt 10.1396 3.93701
vt 11.1673 30.3276
vn -0.258819 0 0.965926
vt 10.1396 30.3276
f 15/56/16 28/57/17 29/58/16

v 4.59556 0.1 -0.403407
vt 11.1673 3.93701
f 28/57/17 15/56/16 37/59/17

f 15/15/3 16/16/3 37/31/3

v 4.62144 0.1 -0.4
vt 19.685 15.748
f 37/31/3 16/16/3 38/60/3

v 4.64732 0.1 -0.403407
vt 20.704 15.8822
f 38/60/3 16/16/3 39/61/3

v 4.67144 0.1 -0.413397
vt 21.6535 16.2755
f 39/61/3 16/16/3 40/62/3

v 4.69215 0.1 -0.429289
vt 22.4689 16.9012
f 40/62/3 16/16/3 41/63/3

v 4.70804 0.1 -0.45
vt 23.0946 17.7165
f 41/63/3 16/16/3 42/64/3

v 4.71803 0.1 -0.474118
vt 23.4879 18.6661
f 42/64/3 16/16/3 43/65/3

f 43/65/3 16/16/3 18/19/3

vt 22.5999 3.93701
vn 1 0 2.23961e-16
v 4.71803 0.77032 -0.474118
vt 21.5722 30.3276
vn 0.965926 0 0.258819
vt 21.5722 3.93701
f 18/66/18 44/67/19 43/68/19

v 4.72144 0.77032 -0.5
vt 22.5999 30.3276
f 44/67/19 18/66/18 45/69/18

vt 17.4611 3.93701
vn 0.965926 0 -0.258819
vt 16.4333 30.3276
vt 16.4333 3.93701
f 19/70/20 45/71/18 18/72/18

v 4.71803 0.77032 -0.525882
vt 17.4611 30.3276
f 45/71/18 19/70/20 46/73/20

vn 0.866025 0 -0.5
f 20/59/21 46/58/20 19/56/20

v 4.70804 0.77032 -0.55
f 46/58/20 20/59/21 47/57/21

vn 0.707107 0 -0.707107
f 21/55/22 47/54/21 20/52/21

v 4.69215 0.77032 -0.570711
f 47/54/21 21/55/22 48/53/22

v 4.67144 0.77032 -0.586603
vn 0.5 0 -0.866025
f 21/50/22 49/51/23 48/49/22

f 49/51/23 21/50/22 22/48/23

v 4.64732 0.77032 -0.596593
vn 0.258819 0 -0.965926
f 22/46/23 50/47/24 49/45/23

f 50/47/24 22/46/23 23/44/24

v 4.62144 0.77032 -0.6
vn -1.38576e-15 0 -1
f 23/42/24 51/43/25 50/41/24

f 51/43/25 23/42/24 24/40/25

f 24/35/25 27/34/8 51/32/25

f 27/34/8 24/35/25 25/33/8

v 4.62144 0.77032 -0.4
f 27/26/3 52/60/3 51/25/3

f 27/26/3 28/31/3 52/60/3

vn 5.73899e-16 0 1
f 37/72/17 52/73/26 28/71/17

f 52/73/26 37/72/17 38/70/26

v 4.64732 0.77032 -0.403407
vn 0.258819 0 0.965926
f 38/68/26 53/69/27 52/67/26

f 53/69/27 38/68/26 39/66/27

vt 25.2059 3.93701
v 4.67144 0.77032 -0.413397
vt 26.2336 30.3276
vn 0.5 0 0.866025
vt 25.2059 30.3276
f 39/74/27 54/75/28 53/76/27

vt 26.2336 3.93701
f 54/75/28 39/74/27 40/77/28

vt 27.0868 3.93701
v 4.69215 0.77032 -0.429289
vt 28.1146 30.3276
vn 0.707107 0 0.707107
vt 27.0868 30.3276
f 40/78/28 55/79/29 54/80/28

vt 28.1146 3.93701
f 55/79/29 40/78/28 41/81/29

vn 0.866025 0 0.5
f 42/81/30 55/80/29 41/78/29

v 4.70804 0.77032 -0.45
f 55/80/29 42/81/30 56/79/30

f 43/77/19 56/76/30 42/74/30

f 56/76/30 43/77/19 44/75/19

f 46/20/3 56/64/3 44/65/3

f 47/21/3 56/64/3 46/20/3

f 48/22/3 56/64/3 47/21/3

f 48/22/3 55/63/3 56/64/3

f 48/22/3 54/62/3 55/63/3

f 49/23/3 54/62/3 48/22/3

f 50/24/3 54/62/3 49/23/3

f 50/24/3 53/61/3 54/62/3

f 51/25/3 53/61/3 50/24/3

f 51/25/3 52/60/3 53/61/3

f 46/20/3 44/65/3 45/19/3

g Mesh2 Palo_1_2 Model

v 0 0.1 -1.12144
v 0 0 -0
v 0 0.1 -0
f 57/1/1 58/2/1 59/3/1

v 0 0 -1.12144
f 58/2/1 57/1/1 60/4/1

v 1.12144 0 -1.12144
f 57/3/2 61/4/2 60/2/2

v 1.12144 0.1 -1.12144
f 61/4/2 57/3/2 62/1/2

v 0.504648 0.1 -0.65784
f 57/5/3 63/6/3 62/7/3

v 0.481423 0.1 -0.640018
f 63/6/3 57/5/3 64/8/3

v 0.463601 0.1 -0.616792
f 64/8/3 57/5/3 65/9/3

v 0.452398 0.1 -0.589745
f 65/9/3 57/5/3 66/10/3

v 0.448576 0.1 -0.56072
f 66/10/3 57/5/3 67/11/3

v 0.452398 0.1 -0.531695
f 57/5/3 68/12/3 67/11/3

v 0.463601 0.1 -0.504648
f 57/5/3 69/13/3 68/12/3

f 59/2/3 69/13/3 57/5/3

v 0.481423 0.1 -0.481423
f 69/13/3 59/2/3 70/14/3

v 0.504648 0.1 -0.463601
f 70/14/3 59/2/3 71/15/3

v 1.12144 0.1 -0
f 71/15/3 59/2/3 72/16/3

f 58/2/4 72/17/4 59/3/4

v 1.12144 0 -0
f 72/17/4 58/2/4 73/16/4

f 58/2/5 61/18/5 73/4/5

f 61/18/5 58/2/5 60/5/5

f 61/16/6 72/3/6 73/2/6

f 72/3/6 61/16/6 62/17/6

v 0.672864 0.1 -0.56072
f 62/7/3 74/19/3 72/16/3

v 0.669043 0.1 -0.589745
f 62/7/3 75/20/3 74/19/3

v 0.65784 0.1 -0.616792
f 62/7/3 76/21/3 75/20/3

v 0.640018 0.1 -0.640018
f 62/7/3 77/22/3 76/21/3

v 0.616792 0.1 -0.65784
f 62/7/3 78/23/3 77/22/3

v 0.589745 0.1 -0.669043
f 62/7/3 79/24/3 78/23/3

v 0.56072 0.1 -0.672864
f 62/7/3 80/25/3 79/24/3

v 0.531695 0.1 -0.669043
f 62/7/3 81/26/3 80/25/3

f 62/7/3 63/6/3 81/26/3

v 0.504648 0.77032 -0.65784
f 82/27/7 81/28/8 63/29/7

v 0.531695 0.77032 -0.669043
f 81/28/8 82/27/7 83/30/8

v 0.531695 0.77032 -0.452398
f 82/6/3 84/31/3 83/26/3

v 0.504648 0.77032 -0.463601
f 82/6/3 85/15/3 84/31/3

v 0.481423 0.77032 -0.640018
f 86/8/3 85/15/3 82/6/3

v 0.481423 0.77032 -0.481423
f 86/8/3 87/14/3 85/15/3

v 0.463601 0.77032 -0.616792
f 88/9/3 87/14/3 86/8/3

v 0.463601 0.77032 -0.504648
f 88/9/3 89/13/3 87/14/3

v 0.452398 0.77032 -0.589745
f 90/10/3 89/13/3 88/9/3

v 0.452398 0.77032 -0.531695
f 90/10/3 91/12/3 89/13/3

v 0.448576 0.77032 -0.56072
f 91/12/3 90/10/3 92/11/3

f 90/32/9 67/33/10 92/34/10

f 67/33/10 90/32/9 66/35/9

f 88/30/11 66/29/9 90/27/9

f 66/29/9 88/30/11 65/28/11

f 86/36/12 65/37/11 88/38/11

f 65/37/11 86/36/12 64/39/12

f 86/38/12 63/39/7 64/37/12

f 63/39/7 86/38/12 82/36/7

f 68/40/13 92/41/10 67/42/10

f 92/41/10 68/40/13 91/43/13

f 69/44/14 91/45/13 68/46/13

f 91/45/13 69/44/14 89/47/14

f 70/48/15 89/49/14 69/50/14

f 89/49/14 70/48/15 87/51/15

f 70/52/15 85/53/16 87/54/15

f 85/53/16 70/52/15 71/55/16

f 71/56/16 84/57/17 85/58/16

v 0.531695 0.1 -0.452398
f 84/57/17 71/56/16 93/59/17

f 71/15/3 72/16/3 93/31/3

v 0.56072 0.1 -0.448576
f 93/31/3 72/16/3 94/60/3

v 0.589745 0.1 -0.452398
f 94/60/3 72/16/3 95/61/3

v 0.616792 0.1 -0.463601
f 95/61/3 72/16/3 96/62/3

v 0.640018 0.1 -0.481423
f 96/62/3 72/16/3 97/63/3

v 0.65784 0.1 -0.504648
f 97/63/3 72/16/3 98/64/3

v 0.669043 0.1 -0.531695
f 98/64/3 72/16/3 99/65/3

f 99/65/3 72/16/3 74/19/3

v 0.669043 0.77032 -0.531695
f 74/66/18 100/67/19 99/68/19

v 0.672864 0.77032 -0.56072
f 100/67/19 74/66/18 101/69/18

f 75/70/20 101/71/18 74/72/18

v 0.669043 0.77032 -0.589745
f 101/71/18 75/70/20 102/73/20

f 76/59/21 102/58/20 75/56/20

v 0.65784 0.77032 -0.616792
f 102/58/20 76/59/21 103/57/21

f 77/55/22 103/54/21 76/52/21

v 0.640018 0.77032 -0.640018
f 103/54/21 77/55/22 104/53/22

v 0.616792 0.77032 -0.65784
f 77/50/22 105/51/23 104/49/22

f 105/51/23 77/50/22 78/48/23

v 0.589745 0.77032 -0.669043
f 78/46/23 106/47/24 105/45/23

f 106/47/24 78/46/23 79/44/24

v 0.56072 0.77032 -0.672864
f 79/42/24 107/43/25 106/41/24

f 107/43/25 79/42/24 80/40/25

f 80/35/25 83/34/8 107/32/25

f 83/34/8 80/35/25 81/33/8

v 0.56072 0.77032 -0.448576
f 83/26/3 108/60/3 107/25/3

f 83/26/3 84/31/3 108/60/3

f 93/72/17 108/73/26 84/71/17

f 108/73/26 93/72/17 94/70/26

v 0.589745 0.77032 -0.452398
f 94/68/26 109/69/27 108/67/26

f 109/69/27 94/68/26 95/66/27

v 0.616792 0.77032 -0.463601
f 95/74/27 110/75/28 109/76/27

f 110/75/28 95/74/27 96/77/28

v 0.640018 0.77032 -0.481423
f 96/78/28 111/79/29 110/80/28

f 111/79/29 96/78/28 97/81/29

f 98/81/30 111/80/29 97/78/29

v 0.65784 0.77032 -0.504648
f 111/80/29 98/81/30 112/79/30

f 99/77/19 112/76/30 98/74/30

f 112/76/30 99/77/19 100/75/19

f 102/20/3 112/64/3 100/65/3

f 103/21/3 112/64/3 102/20/3

f 104/22/3 112/64/3 103/21/3

f 104/22/3 111/63/3 112/64/3

f 104/22/3 110/62/3 111/63/3

f 105/23/3 110/62/3 104/22/3

f 106/24/3 110/62/3 105/23/3

f 106/24/3 109/61/3 110/62/3

f 107/25/3 109/61/3 106/24/3

f 107/25/3 108/60/3 109/61/3

f 102/20/3 100/65/3 101/19/3

g Mesh3 Palo_1_3 Model

v 2.12144 0.1 -1
v 2.12144 0 -0
v 2.12144 0.1 -0
f 113/1/1 114/2/1 115/3/1

v 2.12144 0 -1
f 114/2/1 113/1/1 116/4/1

v 3.12144 0 -1
f 113/3/2 117/4/2 116/2/2

v 3.12144 0.1 -1
f 117/4/2 113/3/2 118/1/2

v 2.57144 0.1 -0.586603
f 113/5/3 119/6/3 118/7/3

v 2.55073 0.1 -0.570711
f 119/6/3 113/5/3 120/8/3

v 2.53484 0.1 -0.55
f 120/8/3 113/5/3 121/9/3

v 2.52485 0.1 -0.525882
f 121/9/3 113/5/3 122/10/3

v 2.52144 0.1 -0.5
f 122/10/3 113/5/3 123/11/3

v 2.52485 0.1 -0.474118
f 113/5/3 124/12/3 123/11/3

v 2.53484 0.1 -0.45
f 113/5/3 125/13/3 124/12/3

f 115/2/3 125/13/3 113/5/3

v 2.55073 0.1 -0.429289
f 125/13/3 115/2/3 126/14/3

v 2.57144 0.1 -0.413397
f 126/14/3 115/2/3 127/15/3

v 3.12144 0.1 -0
f 127/15/3 115/2/3 128/16/3

f 114/2/4 128/17/4 115/3/4

v 3.12144 0 -0
f 128/17/4 114/2/4 129/16/4

f 114/2/5 117/18/5 129/4/5

f 117/18/5 114/2/5 116/5/5

f 117/16/6 128/3/6 129/2/6

f 128/3/6 117/16/6 118/17/6

v 2.72144 0.1 -0.5
f 118/7/3 130/19/3 128/16/3

v 2.71803 0.1 -0.525882
f 118/7/3 131/20/3 130/19/3

v 2.70804 0.1 -0.55
f 118/7/3 132/21/3 131/20/3

v 2.69215 0.1 -0.570711
f 118/7/3 133/22/3 132/21/3

v 2.67144 0.1 -0.586603
f 118/7/3 134/23/3 133/22/3

v 2.64732 0.1 -0.596593
f 118/7/3 135/24/3 134/23/3

v 2.62144 0.1 -0.6
f 118/7/3 136/25/3 135/24/3

v 2.59556 0.1 -0.596593
f 118/7/3 137/26/3 136/25/3

f 118/7/3 119/6/3 137/26/3

v 2.57144 0.77032 -0.586603
f 138/27/7 137/28/8 119/29/7

v 2.59556 0.77032 -0.596593
f 137/28/8 138/27/7 139/30/8

v 2.59556 0.77032 -0.403407
f 138/6/3 140/31/3 139/26/3

v 2.57144 0.77032 -0.413397
f 138/6/3 141/15/3 140/31/3

v 2.55073 0.77032 -0.570711
f 142/8/3 141/15/3 138/6/3

v 2.55073 0.77032 -0.429289
f 142/8/3 143/14/3 141/15/3

v 2.53484 0.77032 -0.55
f 144/9/3 143/14/3 142/8/3

v 2.53484 0.77032 -0.45
f 144/9/3 145/13/3 143/14/3

v 2.52485 0.77032 -0.525882
f 146/10/3 145/13/3 144/9/3

v 2.52485 0.77032 -0.474118
f 146/10/3 147/12/3 145/13/3

v 2.52144 0.77032 -0.5
f 147/12/3 146/10/3 148/11/3

f 146/32/9 123/33/10 148/34/10

f 123/33/10 146/32/9 122/35/9

f 144/30/11 122/29/9 146/27/9

f 122/29/9 144/30/11 121/28/11

f 142/36/12 121/37/11 144/38/11

f 121/37/11 142/36/12 120/39/12

f 142/38/12 119/39/7 120/37/12

f 119/39/7 142/38/12 138/36/7

f 124/40/13 148/41/10 123/42/10

f 148/41/10 124/40/13 147/43/13

f 125/44/14 147/45/13 124/46/13

f 147/45/13 125/44/14 145/47/14

f 126/48/15 145/49/14 125/50/14

f 145/49/14 126/48/15 143/51/15

f 126/52/15 141/53/16 143/54/15

f 141/53/16 126/52/15 127/55/16

f 127/56/16 140/57/17 141/58/16

v 2.59556 0.1 -0.403407
f 140/57/17 127/56/16 149/59/17

f 127/15/3 128/16/3 149/31/3

v 2.62144 0.1 -0.4
f 149/31/3 128/16/3 150/60/3

v 2.64732 0.1 -0.403407
f 150/60/3 128/16/3 151/61/3

v 2.67144 0.1 -0.413397
f 151/61/3 128/16/3 152/62/3

v 2.69215 0.1 -0.429289
f 152/62/3 128/16/3 153/63/3

v 2.70804 0.1 -0.45
f 153/63/3 128/16/3 154/64/3

v 2.71803 0.1 -0.474118
f 154/64/3 128/16/3 155/65/3

f 155/65/3 128/16/3 130/19/3

v 2.71803 0.77032 -0.474118
f 130/66/18 156/67/19 155/68/19

v 2.72144 0.77032 -0.5
f 156/67/19 130/66/18 157/69/18

f 131/70/20 157/71/18 130/72/18

v 2.71803 0.77032 -0.525882
f 157/71/18 131/70/20 158/73/20

f 132/59/21 158/58/20 131/56/20

v 2.70804 0.77032 -0.55
f 158/58/20 132/59/21 159/57/21

f 133/55/22 159/54/21 132/52/21

v 2.69215 0.77032 -0.570711
f 159/54/21 133/55/22 160/53/22

v 2.67144 0.77032 -0.586603
f 133/50/22 161/51/23 160/49/22

f 161/51/23 133/50/22 134/48/23

v 2.64732 0.77032 -0.596593
f 134/46/23 162/47/24 161/45/23

f 162/47/24 134/46/23 135/44/24

v 2.62144 0.77032 -0.6
f 135/42/24 163/43/25 162/41/24

f 163/43/25 135/42/24 136/40/25

f 136/35/25 139/34/8 163/32/25

f 139/34/8 136/35/25 137/33/8

v 2.62144 0.77032 -0.4
f 139/26/3 164/60/3 163/25/3

f 139/26/3 140/31/3 164/60/3

f 149/72/17 164/73/26 140/71/17

f 164/73/26 149/72/17 150/70/26

v 2.64732 0.77032 -0.403407
f 150/68/26 165/69/27 164/67/26

f 165/69/27 150/68/26 151/66/27

v 2.67144 0.77032 -0.413397
f 151/74/27 166/75/28 165/76/27

f 166/75/28 151/74/27 152/77/28

v 2.69215 0.77032 -0.429289
f 152/78/28 167/79/29 166/80/28

f 167/79/29 152/78/28 153/81/29

f 154/81/30 167/80/29 153/78/29

v 2.70804 0.77032 -0.45
f 167/80/29 154/81/30 168/79/30

f 155/77/19 168/76/30 154/74/30

f 168/76/30 155/77/19 156/75/19

f 158/20/3 168/64/3 156/65/3

f 159/21/3 168/64/3 158/20/3

f 160/22/3 168/64/3 159/21/3

f 160/22/3 167/63/3 168/64/3

f 160/22/3 166/62/3 167/63/3

f 161/23/3 166/62/3 160/22/3

f 162/24/3 166/62/3 161/23/3

f 162/24/3 165/61/3 166/62/3

f 163/25/3 165/61/3 162/24/3

f 163/25/3 164/60/3 165/61/3

f 158/20/3 156/65/3 157/19/3

